<svg width="330" height="108" viewBox="0 0 330 108" fill="none" xmlns="http://www.w3.org/2000/svg">
<path d="M54.9 54.5L33.8 54.1C29.7333 54.0333 26.3667 52.9333 23.7 50.8C21.0333 48.6667 19.7 45.9667 19.7 42.7C19.7 38.2333 22.9667 33.8 29.5 29.4C36.1 24.9333 43.9 21.4333 52.9 18.9C61.9667 16.3 69.7667 15 76.3 15C89.2333 15 95.7 18.3 95.7 24.9C95.7 27.0333 93.4 31 88.8 36.8C84.2667 42.6 80.8667 45.5 78.6 45.5C78.1333 45.5 77.6667 45.3 77.2 44.9C76.8 44.4333 76.6 43.8667 76.6 43.2C76.6 42.5333 77.4 41.3333 79 39.6C80.6667 37.8 81.5 36.5 81.5 35.7C81.5 35.1 80.7333 34.8 79.2 34.8C75.0667 34.8 68.5333 36.3667 59.6 39.5C50.6667 42.5667 46.2 45 46.2 46.8C46.2 47.5333 46.9333 48 48.4 48.2C49.8667 48.3333 52.4667 48.4667 56.2 48.6C59.9333 48.6667 63.2 48.9 66 49.3C68.8 49.7 71.0667 50.3 72.8 51.1C74.6 51.8333 75.9667 52.6333 76.9 53.5C77.9 54.3667 78.7 55.3667 79.3 56.5C80.1667 58.3 80.6 60.1 80.6 61.9C80.6 66.7 77.3 71.5333 70.7 76.4C64.1667 81.2667 56.2667 85.1667 47 88.1C37.8 91.0333 29.6 92.5 22.4 92.5C7.46667 92.5 0 87.8 0 78.4C0 74.0667 3.43333 70.5 10.3 67.7C12.5 69.6333 17.3333 70.6 24.8 70.6C30.2667 70.2667 35.3 69.5 39.9 68.3C44.5 67.0333 48.1 65.6667 50.7 64.2C53.3 62.6667 55.3333 61.2333 56.8 59.9C58.2667 58.5 59.1 57.3333 59.3 56.4C59.1667 55.1333 57.7 54.5 54.9 54.5Z" fill="black"/>
<path d="M113.98 73.6152C108.688 73.6152 104.459 72.4043 101.295 69.9824C98.1504 67.5605 96.5098 63.9961 96.373 59.2891H105.309C105.465 61.4766 106.324 63.127 107.887 64.2402C109.469 65.334 111.461 65.8809 113.863 65.8809C116.207 65.8809 118.082 65.3828 119.488 64.3867C120.914 63.3906 121.627 62.0918 121.627 60.4902C121.627 59.0254 120.982 57.9023 119.693 57.1211C118.404 56.3203 116.568 55.6367 114.186 55.0703L109.41 53.8984C105.738 53.0195 102.838 51.623 100.709 49.709C98.5996 47.7754 97.5449 45.1973 97.5449 41.9746C97.5449 39.3379 98.2578 37.0332 99.6836 35.0605C101.109 33.0684 103.062 31.5254 105.543 30.4316C108.043 29.3184 110.885 28.7617 114.068 28.7617C117.311 28.7617 120.143 29.3184 122.564 30.4316C124.986 31.5449 126.871 33.0879 128.219 35.0605C129.586 37.0332 130.289 39.3086 130.328 41.8867H121.422C121.266 40.1875 120.543 38.8594 119.254 37.9023C117.965 36.9453 116.217 36.4668 114.01 36.4668C111.764 36.4668 110.035 36.9355 108.824 37.873C107.613 38.791 107.008 39.9629 107.008 41.3887C107.008 42.9316 107.682 44.1035 109.029 44.9043C110.377 45.6855 111.998 46.3008 113.893 46.75L117.789 47.7168C120.328 48.2832 122.584 49.1133 124.557 50.207C126.529 51.2812 128.082 52.668 129.215 54.3672C130.348 56.0469 130.914 58.0977 130.914 60.5195C130.914 64.5234 129.42 67.707 126.432 70.0703C123.443 72.4336 119.293 73.6152 113.98 73.6152ZM151.715 73.6445C148.355 73.6445 145.475 72.9316 143.072 71.5059C140.67 70.0801 138.824 68.0977 137.535 65.5586C136.266 63.0195 135.631 60.0898 135.631 56.7695C135.631 53.4102 136.275 50.4609 137.564 47.9219C138.873 45.3828 140.729 43.4004 143.131 41.9746C145.533 40.5488 148.385 39.8359 151.686 39.8359C154.537 39.8359 157.037 40.3535 159.186 41.3887C161.334 42.4238 163.033 43.8789 164.283 45.7539C165.533 47.6289 166.217 49.8359 166.334 52.375H157.779C157.525 50.7539 156.891 49.4453 155.875 48.4492C154.859 47.4336 153.512 46.9258 151.832 46.9258C149.723 46.9258 148.033 47.7754 146.764 49.4746C145.494 51.1543 144.859 53.5469 144.859 56.6523C144.859 59.7773 145.484 62.209 146.734 63.9473C148.004 65.6855 149.703 66.5547 151.832 66.5547C153.395 66.5547 154.713 66.0664 155.787 65.0898C156.861 64.1133 157.525 62.7461 157.779 60.9883H166.334C166.197 63.4883 165.523 65.6953 164.312 67.6094C163.102 69.5039 161.422 70.9883 159.273 72.0625C157.145 73.1172 154.625 73.6445 151.715 73.6445ZM181.568 73.6152C178.443 73.6152 175.846 72.8047 173.775 71.1836C171.725 69.543 170.699 67.1016 170.699 63.8594C170.699 61.418 171.266 59.5039 172.398 58.1172C173.551 56.7109 175.064 55.6855 176.939 55.041C178.814 54.377 180.826 53.9473 182.975 53.752C185.826 53.4785 187.857 53.1953 189.068 52.9023C190.299 52.5898 190.914 51.9062 190.914 50.8516V50.7051C190.914 49.3574 190.484 48.3125 189.625 47.5703C188.766 46.8281 187.525 46.457 185.904 46.457C184.283 46.457 182.955 46.8086 181.92 47.5117C180.904 48.2148 180.23 49.1133 179.898 50.207L171.637 48.8887C172.418 46.0371 174.059 43.8203 176.559 42.2383C179.078 40.6367 182.203 39.8359 185.934 39.8359C188.355 39.8359 190.631 40.2168 192.76 40.9785C194.908 41.7402 196.646 42.9414 197.975 44.582C199.303 46.2031 199.967 48.3125 199.967 50.9102V73H191.383V68.4297H191.119C190.318 69.9727 189.127 71.2227 187.545 72.1797C185.982 73.1367 183.99 73.6152 181.568 73.6152ZM179.342 63.5664C179.342 64.8164 179.791 65.7637 180.689 66.4082C181.607 67.0332 182.76 67.3457 184.146 67.3457C186.139 67.3457 187.77 66.7695 189.039 65.6172C190.328 64.4648 190.973 63.0293 190.973 61.3105V57.8242C190.621 58.0586 190.064 58.2734 189.303 58.4688C188.561 58.6641 187.77 58.8301 186.93 58.9668C186.09 59.084 185.338 59.1914 184.674 59.2891C183.072 59.5234 181.783 59.9824 180.807 60.666C179.83 61.3301 179.342 62.2969 179.342 63.5664ZM216.344 29.3477V73H207.262V29.3477H216.344ZM232.955 73.6152C229.83 73.6152 227.232 72.8047 225.162 71.1836C223.111 69.543 222.086 67.1016 222.086 63.8594C222.086 61.418 222.652 59.5039 223.785 58.1172C224.938 56.7109 226.451 55.6855 228.326 55.041C230.201 54.377 232.213 53.9473 234.361 53.752C237.213 53.4785 239.244 53.1953 240.455 52.9023C241.686 52.5898 242.301 51.9062 242.301 50.8516V50.7051C242.301 49.3574 241.871 48.3125 241.012 47.5703C240.152 46.8281 238.912 46.457 237.291 46.457C235.67 46.457 234.342 46.8086 233.307 47.5117C232.291 48.2148 231.617 49.1133 231.285 50.207L223.023 48.8887C223.805 46.0371 225.445 43.8203 227.945 42.2383C230.465 40.6367 233.59 39.8359 237.32 39.8359C239.742 39.8359 242.018 40.2168 244.146 40.9785C246.295 41.7402 248.033 42.9414 249.361 44.582C250.689 46.2031 251.354 48.3125 251.354 50.9102V73H242.77V68.4297H242.506C241.705 69.9727 240.514 71.2227 238.932 72.1797C237.369 73.1367 235.377 73.6152 232.955 73.6152ZM230.729 63.5664C230.729 64.8164 231.178 65.7637 232.076 66.4082C232.994 67.0332 234.146 67.3457 235.533 67.3457C237.525 67.3457 239.156 66.7695 240.426 65.6172C241.715 64.4648 242.359 63.0293 242.359 61.3105V57.8242C242.008 58.0586 241.451 58.2734 240.689 58.4688C239.947 58.6641 239.156 58.8301 238.316 58.9668C237.477 59.084 236.725 59.1914 236.061 59.2891C234.459 59.5234 233.17 59.9824 232.193 60.666C231.217 61.3301 230.729 62.2969 230.729 63.5664ZM258.648 73V40.2461H267.438V45.9883H267.789C268.375 43.957 269.371 42.4238 270.777 41.3887C272.184 40.334 273.805 39.8066 275.641 39.8066C276.09 39.8066 276.578 39.8359 277.105 39.8945C277.633 39.9531 278.092 40.0312 278.482 40.1289V48.1562C278.053 48.0195 277.457 47.9121 276.695 47.834C275.953 47.7363 275.27 47.6875 274.645 47.6875C272.652 47.6875 271.002 48.3223 269.693 49.5918C268.385 50.8418 267.73 52.4727 267.73 54.4844V73H258.648ZM283.199 73V40.2461H292.281V73H283.199ZM287.74 36.0566C286.393 36.0566 285.23 35.6074 284.254 34.709C283.297 33.8105 282.818 32.7266 282.818 31.457C282.818 30.1875 283.297 29.1133 284.254 28.2344C285.23 27.3359 286.393 26.8867 287.74 26.8867C289.088 26.8867 290.24 27.3359 291.197 28.2344C292.174 29.1133 292.662 30.1875 292.662 31.457C292.662 32.7266 292.174 33.8105 291.197 34.709C290.24 35.6074 289.088 36.0566 287.74 36.0566ZM326.734 49.5918L318.473 50.0898C318.238 49.0547 317.652 48.166 316.715 47.4238C315.797 46.6621 314.547 46.2812 312.965 46.2812C311.559 46.2812 310.377 46.5742 309.42 47.1602C308.463 47.7461 307.984 48.5273 307.984 49.5039C307.984 50.2852 308.297 50.9492 308.922 51.4961C309.547 52.043 310.611 52.4824 312.115 52.8145L318.062 53.9863C324.352 55.2363 327.496 58.1855 327.496 62.834C327.496 65.002 326.871 66.8965 325.621 68.5176C324.371 70.1387 322.652 71.3984 320.465 72.2969C318.277 73.1953 315.768 73.6445 312.936 73.6445C308.6 73.6445 305.152 72.7461 302.594 70.9492C300.035 69.1328 298.531 66.6621 298.082 63.5371L306.988 63.0684C307.594 65.7637 309.586 67.1113 312.965 67.1113C314.547 67.1113 315.826 66.7988 316.803 66.1738C317.779 65.5488 318.268 64.7578 318.268 63.8008C318.268 62.1797 316.871 61.0859 314.078 60.5195L308.424 59.3477C302.115 58.0781 298.961 54.9727 298.961 50.0312C298.961 46.8672 300.221 44.377 302.74 42.5605C305.279 40.7441 308.639 39.8359 312.818 39.8359C316.959 39.8359 320.221 40.7148 322.604 42.4727C324.986 44.2109 326.363 46.584 326.734 49.5918Z" fill="black"/>
</svg>
