<svg width="96" height="78" viewBox="0 0 96 78" fill="none" xmlns="http://www.w3.org/2000/svg">
<path d="M54.9 39.5L33.8 39.1C29.7333 39.0333 26.3667 37.9333 23.7 35.8C21.0333 33.6667 19.7 30.9667 19.7 27.7C19.7 23.2333 22.9667 18.8 29.5 14.4C36.1 9.93333 43.9 6.43333 52.9 3.9C61.9667 1.3 69.7667 0 76.3 0C89.2333 0 95.7 3.3 95.7 9.9C95.7 12.0333 93.4 16 88.8 21.8C84.2667 27.6 80.8667 30.5 78.6 30.5C78.1333 30.5 77.6667 30.3 77.2 29.9C76.8 29.4333 76.6 28.8667 76.6 28.2C76.6 27.5333 77.4 26.3333 79 24.6C80.6667 22.8 81.5 21.5 81.5 20.7C81.5 20.1 80.7333 19.8 79.2 19.8C75.0667 19.8 68.5333 21.3667 59.6 24.5C50.6667 27.5667 46.2 30 46.2 31.8C46.2 32.5333 46.9333 33 48.4 33.2C49.8667 33.3333 52.4667 33.4667 56.2 33.6C59.9333 33.6667 63.2 33.9 66 34.3C68.8 34.7 71.0667 35.3 72.8 36.1C74.6 36.8333 75.9667 37.6333 76.9 38.5C77.9 39.3667 78.7 40.3667 79.3 41.5C80.1667 43.3 80.6 45.1 80.6 46.9C80.6 51.7 77.3 56.5333 70.7 61.4C64.1667 66.2667 56.2667 70.1667 47 73.1C37.8 76.0333 29.6 77.5 22.4 77.5C7.46667 77.5 0 72.8 0 63.4C0 59.0667 3.43333 55.5 10.3 52.7C12.5 54.6333 17.3333 55.6 24.8 55.6C30.2667 55.2667 35.3 54.5 39.9 53.3C44.5 52.0333 48.1 50.6667 50.7 49.2C53.3 47.6667 55.3333 46.2333 56.8 44.9C58.2667 43.5 59.1 42.3333 59.3 41.4C59.1667 40.1333 57.7 39.5 54.9 39.5Z" fill="black"/>
</svg>
